<?xml version="1.0" encoding="utf-8"?>
<!-- Generator: Adobe Illustrator 18.0.0, SVG Export Plug-In . SVG Version: 6.00 Build 0)  -->
<!DOCTYPE svg PUBLIC "-//W3C//DTD SVG 1.1//EN" "http://www.w3.org/Graphics/SVG/1.1/DTD/svg11.dtd">
<svg  version="1.1" id="Layer_1" xmlns="http://www.w3.org/2000/svg" xmlns:xlink="http://www.w3.org/1999/xlink" x="0px" y="0px"
	 viewBox="0 0 50 50" enable-background="new 0 0 50 50" xml:space="preserve">
<g>
	<path fill="#007AFF" d="M21.7,30c0,3,0,5.9,0,8.8c-2.9,0-5.7,0-8.5,0c0-0.2,0-0.3,0-0.5c0-4.1,0-8.3,0-12.4c0-0.3,0.1-0.5,0.4-0.7
		c3.7-2.7,7.4-5.4,11.1-8c0.3-0.2,0.5-0.2,0.8,0c3.7,2.7,7.4,5.3,11.1,8c0.2,0.1,0.4,0.4,0.4,0.6c0,4.3,0,8.5,0,12.8
		c0,0.1,0,0.1,0,0.2c-2.8,0-5.6,0-8.5,0c0-2.9,0-5.9,0-8.8C26.1,30,23.9,30,21.7,30z"/>
	<path fill="#007AFF" d="M25,11.1c2.6,1.9,5.1,3.7,7.7,5.6c0-1.9,0-3.7,0-5.6c1.4,0,2.7,0,4.1,0c0,0.2,0,0.4,0,0.5c0,2.5,0,5,0,7.5
		c0,0.4,0.1,0.6,0.4,0.8c1.5,1,2.9,2.1,4.4,3.2c-0.6,0.8-1.2,1.6-1.8,2.5c-5-3.6-9.9-7.2-14.9-10.8C20,18.5,15.1,22,10.1,25.6
		C9.5,24.8,9,24,8.3,23.2C13.9,19.1,19.4,15.1,25,11.1z"/>
</g>
</svg>
