<?xml version="1.0" encoding="utf-8"?>
<!-- Generator: Adobe Illustrator 16.0.0, SVG Export Plug-In . SVG Version: 6.00 Build 0)  -->
<!DOCTYPE svg PUBLIC "-//W3C//DTD SVG 1.1//EN" "http://www.w3.org/Graphics/SVG/1.1/DTD/svg11.dtd">
<svg version="1.1" id="Layer_1" xmlns="http://www.w3.org/2000/svg" xmlns:xlink="http://www.w3.org/1999/xlink" x="0px" y="0px"
	 width="50px" height="50px" viewBox="0 0 50 50" enable-background="new 0 0 50 50" xml:space="preserve">
<g>
	<path fill="#007AFF" d="M34.728,13h-7.344c-1.013,0-1.897,0.54-2.384,1.343C24.514,13.54,23.629,13,22.616,13h-7.344
		c-1.533,0-2.78,1.236-2.78,2.754v14.951c0,1.519,1.247,2.754,2.78,2.754h5.754c1.973,0,3.576,1.589,3.576,3.541h0.795
		c0-1.952,1.604-3.541,3.575-3.541h5.755c1.533,0,2.78-1.235,2.78-2.754V15.754C37.508,14.236,36.261,13,34.728,13z M24.603,34.515
		c-0.791-1.113-2.099-1.842-3.576-1.842h-5.754c-1.095,0-1.986-0.882-1.986-1.967V15.754c0-1.084,0.892-1.968,1.986-1.968h7.344
		c1.096,0,1.986,0.883,1.986,1.968V34.515z M36.714,30.705c0,1.085-0.892,1.967-1.986,1.967h-5.755
		c-1.477,0-2.784,0.729-3.575,1.842v-18.76c0-1.084,0.891-1.968,1.986-1.968h7.344c1.095,0,1.986,0.883,1.986,1.968V30.705z"/>
</g>
</svg>
